<svg width="20" height="20" viewBox="0 0 20 20" fill="none" xmlns="http://www.w3.org/2000/svg">
<g clip-path="url(#clip0_856_2471)">
<path d="M10.3574 19.988C11.8868 19.7707 13.2276 18.1744 14.0712 15.8171C12.8516 15.5439 11.607 15.3973 10.3574 15.3799V19.988Z" fill="white"/>
<path d="M12.8009 19.6133C12.8913 19.5871 12.9814 19.5608 13.0707 19.5318C13.1461 19.5076 13.2205 19.4814 13.2948 19.4554C13.3828 19.425 13.4704 19.3938 13.5577 19.3606C13.632 19.3323 13.7057 19.3023 13.7795 19.2723C13.8647 19.2365 13.9496 19.2009 14.0338 19.1651C14.1072 19.1328 14.1802 19.099 14.2532 19.065C14.3357 19.026 14.4179 18.9864 14.4994 18.9452C14.571 18.9087 14.6424 18.8716 14.7139 18.8334C14.794 18.7904 14.8736 18.7466 14.9527 18.7016C15.0242 18.6611 15.0932 18.6204 15.1628 18.5785C15.2403 18.5309 15.3174 18.4832 15.3941 18.4356C15.4626 18.392 15.5311 18.3476 15.5986 18.3019C15.674 18.2511 15.7483 18.1982 15.8223 18.1454C15.8888 18.0977 15.955 18.0502 16.0199 18.0024C16.0915 17.9473 16.1648 17.8902 16.2365 17.8329C16.3002 17.7822 16.3637 17.7317 16.4264 17.6795C16.4978 17.6202 16.5662 17.5588 16.6355 17.4973C16.6962 17.4434 16.7573 17.39 16.8166 17.3347C16.8849 17.271 16.9514 17.205 17.0179 17.1395C17.0755 17.0826 17.1338 17.0266 17.1901 16.9683C17.2006 16.9575 17.2105 16.9458 17.2214 16.9346C16.4417 16.532 15.6206 16.2159 14.7722 15.9922C14.331 17.3992 13.5458 18.6744 12.4878 19.7016C12.5168 19.6941 12.5457 19.688 12.5747 19.6805C12.6512 19.6591 12.7262 19.6355 12.8009 19.6133Z" fill="white"/>
<path d="M20.0001 10.3657H15.7144C15.6981 12.0391 15.4554 13.7025 14.9927 15.3108C15.9362 15.5629 16.8467 15.9252 17.7054 16.3903C19.1152 14.6911 19.9223 12.5725 20.0001 10.3657Z" fill="white"/>
<path d="M10.3574 9.65079H14.9994C14.9812 8.03657 14.7444 6.43229 14.2957 4.88159C13.0031 5.17637 11.683 5.3338 10.3574 5.35125V9.65079Z" fill="white"/>
<path d="M10.3574 0.0280762V4.63618C11.607 4.61855 12.8516 4.47212 14.0712 4.19898C13.2276 1.84161 11.8868 0.245365 10.3574 0.0280762Z" fill="white"/>
<path d="M10.3574 14.6653C11.683 14.6829 13.0031 14.8403 14.2957 15.1351C14.7444 13.5844 14.9812 11.9799 14.9994 10.3657H10.3574V14.6653Z" fill="white"/>
<path d="M17.7054 3.62622C16.8467 4.09134 15.9362 4.45367 14.9927 4.70569C15.4554 6.31398 15.6981 7.97742 15.7144 9.65081H20.0001C19.9221 7.44423 19.1151 5.32561 17.7054 3.62622Z" fill="white"/>
<path d="M17.2222 3.08399C17.2118 3.07334 17.2018 3.06182 17.1915 3.05083C17.135 2.99254 17.0763 2.93634 17.0187 2.87962C16.9524 2.81417 16.8863 2.74802 16.8179 2.68449C16.7587 2.62934 16.6974 2.57716 16.6367 2.52218C16.5674 2.46074 16.4981 2.39879 16.4269 2.33945C16.3651 2.28726 16.3018 2.23735 16.2389 2.18726C16.1674 2.12931 16.0941 2.07172 16.0204 2.01639C15.9558 1.9677 15.8904 1.92058 15.8246 1.87345C15.7499 1.8197 15.6749 1.76612 15.5988 1.71498C15.5319 1.66995 15.464 1.62597 15.3961 1.58286C15.3188 1.53312 15.2417 1.48443 15.163 1.4373C15.094 1.39594 15.0244 1.3551 14.9546 1.31548C14.8746 1.26976 14.7945 1.22542 14.7137 1.18214C14.6422 1.14636 14.5708 1.10744 14.4992 1.07166C14.417 1.03013 14.3341 0.990159 14.2491 0.95089C14.1776 0.916856 14.105 0.883696 14.0313 0.851408C13.9467 0.813884 13.8611 0.780025 13.7758 0.744247C13.7021 0.714228 13.6288 0.684558 13.5545 0.656284C13.4677 0.623123 13.3798 0.592057 13.2918 0.561689C13.2175 0.535509 13.1431 0.509505 13.0677 0.48507C12.9784 0.456098 12.889 0.429745 12.7972 0.403216C12.7229 0.3814 12.6482 0.359235 12.5729 0.339338C12.5441 0.331484 12.5148 0.325376 12.4858 0.317871C13.5438 1.34515 14.3289 2.62009 14.7703 4.02732C15.6195 3.80357 16.4419 3.48733 17.2222 3.08399Z" fill="white"/>
<path d="M0 9.65081H4.28575C4.30198 7.97742 4.54475 6.31398 5.00725 4.70569C4.06392 4.45384 3.1534 4.09152 2.29471 3.62622C0.884865 5.32544 0.0778402 7.44423 0 9.65081Z" fill="white"/>
<path d="M9.64252 19.988V15.3799C8.39289 15.3975 7.14832 15.5439 5.92871 15.8171C6.77221 18.1744 8.11312 19.7707 9.64252 19.988Z" fill="white"/>
<path d="M9.64246 10.3657H5.00049C5.01864 11.9799 5.2553 13.5844 5.70419 15.1351C6.99676 14.8401 8.31673 14.6827 9.64246 14.6653V10.3657Z" fill="white"/>
<path d="M9.64252 0.0280762C8.11312 0.245365 6.77221 1.84161 5.92871 4.19898C7.14832 4.4723 8.39289 4.61873 9.64252 4.63618V0.0280762Z" fill="white"/>
<path d="M9.64246 5.35125C8.3169 5.3338 6.99676 5.17637 5.70419 4.88159C5.2553 6.43229 5.01864 8.03657 5.00049 9.65079H9.64246V5.35125Z" fill="white"/>
<path d="M7.51136 0.317383C7.48239 0.324888 7.45342 0.330996 7.42445 0.338501C7.3487 0.358746 7.274 0.381261 7.1986 0.403077C7.1089 0.429256 7.01989 0.45561 6.92983 0.484233C6.85391 0.508842 6.77921 0.535021 6.70451 0.561026C6.61707 0.591918 6.52946 0.622635 6.44289 0.655446C6.36819 0.684069 6.29454 0.713739 6.22054 0.744107C6.13554 0.779886 6.05037 0.815665 5.96642 0.851269C5.89277 0.883557 5.81999 0.917415 5.74704 0.951449C5.66449 0.990369 5.58228 1.02999 5.50078 1.07118C5.42922 1.10765 5.35766 1.145 5.28628 1.18305C5.20617 1.22598 5.12676 1.26996 5.04787 1.31499C4.97631 1.35496 4.90598 1.39598 4.83704 1.43786C4.75937 1.48464 4.68258 1.53298 4.60614 1.5808C4.53737 1.62478 4.46913 1.66911 4.40159 1.71484C4.32619 1.76563 4.25184 1.81851 4.17784 1.87139C4.11134 1.91904 4.0452 1.96651 3.9801 2.01451C3.90697 2.06948 3.83716 2.12673 3.76351 2.1838C3.69998 2.23459 3.63592 2.28503 3.57379 2.33756C3.50223 2.39655 3.43434 2.45764 3.3654 2.51872C3.30432 2.57318 3.24271 2.62606 3.18302 2.68243C3.11513 2.74579 3.04898 2.81158 2.98266 2.87686C2.92506 2.93375 2.86642 2.98995 2.80987 3.04842C2.79958 3.05924 2.78963 3.07111 2.77881 3.0821C3.55826 3.48492 4.3796 3.80099 5.22799 4.02474C5.6692 2.61838 6.45388 1.34414 7.51136 0.317383Z" fill="white"/>
<path d="M2.98081 17.137C3.0473 17.2024 3.11345 17.2686 3.18169 17.3323C3.24103 17.3873 3.30212 17.4395 3.36303 17.4944C3.43232 17.556 3.5016 17.6178 3.57281 17.6772C3.6346 17.729 3.6976 17.7791 3.76078 17.8294C3.83234 17.8873 3.90372 17.9449 3.97947 18.0006C4.04387 18.0489 4.10932 18.0957 4.17476 18.1437C4.24946 18.1973 4.32486 18.2508 4.40095 18.3023C4.4678 18.3474 4.53569 18.3913 4.60358 18.4346C4.6809 18.4842 4.75804 18.5329 4.83676 18.58C4.90569 18.6215 4.97533 18.6622 5.04514 18.702C5.12508 18.7477 5.20519 18.7921 5.28599 18.8352C5.35738 18.8709 5.42893 18.9099 5.50049 18.9456C5.58269 18.9872 5.6656 19.0271 5.75059 19.0666C5.82215 19.1003 5.89475 19.1334 5.9684 19.1659C6.05305 19.2034 6.1384 19.2373 6.22392 19.2731C6.29757 19.3031 6.37087 19.3327 6.44522 19.361C6.53196 19.3944 6.61992 19.4254 6.70789 19.4558C6.78224 19.4818 6.85659 19.508 6.93198 19.5322C7.02134 19.5612 7.1107 19.5877 7.2025 19.6141C7.27685 19.6359 7.35155 19.6581 7.4266 19.6781C7.45557 19.686 7.48489 19.6921 7.51386 19.6996C6.45587 18.6722 5.67083 17.3972 5.22945 15.99C4.38106 16.2139 3.55972 16.53 2.78027 16.933C2.79075 16.9436 2.80069 16.9551 2.81117 16.9661C2.86475 17.0241 2.92251 17.0803 2.98081 17.137Z" fill="white"/>
<path d="M2.29471 16.3903C3.1534 15.9252 4.06392 15.5629 5.00725 15.3108C4.54475 13.7025 4.30198 12.0391 4.28575 10.3657H0C0.0780147 12.5723 0.884865 14.6909 2.29471 16.3903Z" fill="white"/>
</g>
<defs>
<clipPath id="clip0_856_2471">
<rect width="20" height="20" fill="white"/>
</clipPath>
</defs>
</svg>
