<svg width="20" height="22" viewBox="0 0 20 22" fill="none" xmlns="http://www.w3.org/2000/svg">
<path fill-rule="evenodd" clip-rule="evenodd" d="M18.6663 8.9043H0.842285C0.428285 8.9043 0.0922852 8.5683 0.0922852 8.1543C0.0922852 7.7403 0.428285 7.4043 0.842285 7.4043H18.6663C19.0803 7.4043 19.4163 7.7403 19.4163 8.1543C19.4163 8.5683 19.0803 8.9043 18.6663 8.9043Z" fill="#808080"/>
<path fill-rule="evenodd" clip-rule="evenodd" d="M14.2013 12.8096C13.7873 12.8096 13.4473 12.4736 13.4473 12.0596C13.4473 11.6456 13.7783 11.3096 14.1923 11.3096H14.2013C14.6153 11.3096 14.9513 11.6456 14.9513 12.0596C14.9513 12.4736 14.6153 12.8096 14.2013 12.8096Z" fill="#808080"/>
<path fill-rule="evenodd" clip-rule="evenodd" d="M9.76377 12.8096C9.34977 12.8096 9.00977 12.4736 9.00977 12.0596C9.00977 11.6456 9.34077 11.3096 9.75477 11.3096H9.76377C10.1778 11.3096 10.5138 11.6456 10.5138 12.0596C10.5138 12.4736 10.1778 12.8096 9.76377 12.8096Z" fill="#808080"/>
<path fill-rule="evenodd" clip-rule="evenodd" d="M5.31701 12.8096C4.90301 12.8096 4.56201 12.4736 4.56201 12.0596C4.56201 11.6456 4.89401 11.3096 5.30801 11.3096H5.31701C5.73101 11.3096 6.06701 11.6456 6.06701 12.0596C6.06701 12.4736 5.73101 12.8096 5.31701 12.8096Z" fill="#808080"/>
<path fill-rule="evenodd" clip-rule="evenodd" d="M14.2013 16.6963C13.7873 16.6963 13.4473 16.3603 13.4473 15.9463C13.4473 15.5323 13.7783 15.1963 14.1923 15.1963H14.2013C14.6153 15.1963 14.9513 15.5323 14.9513 15.9463C14.9513 16.3603 14.6153 16.6963 14.2013 16.6963Z" fill="#808080"/>
<path fill-rule="evenodd" clip-rule="evenodd" d="M9.76377 16.6963C9.34977 16.6963 9.00977 16.3603 9.00977 15.9463C9.00977 15.5323 9.34077 15.1963 9.75477 15.1963H9.76377C10.1778 15.1963 10.5138 15.5323 10.5138 15.9463C10.5138 16.3603 10.1778 16.6963 9.76377 16.6963Z" fill="#808080"/>
<path fill-rule="evenodd" clip-rule="evenodd" d="M5.31701 16.6963C4.90301 16.6963 4.56201 16.3603 4.56201 15.9463C4.56201 15.5323 4.89401 15.1963 5.30801 15.1963H5.31701C5.73101 15.1963 6.06701 15.5323 6.06701 15.9463C6.06701 16.3603 5.73101 16.6963 5.31701 16.6963Z" fill="#808080"/>
<path fill-rule="evenodd" clip-rule="evenodd" d="M13.7935 4.791C13.3795 4.791 13.0435 4.455 13.0435 4.041V0.75C13.0435 0.336 13.3795 0 13.7935 0C14.2075 0 14.5435 0.336 14.5435 0.75V4.041C14.5435 4.455 14.2075 4.791 13.7935 4.791Z" fill="#808080"/>
<path fill-rule="evenodd" clip-rule="evenodd" d="M5.71533 4.791C5.30133 4.791 4.96533 4.455 4.96533 4.041V0.75C4.96533 0.336 5.30133 0 5.71533 0C6.12933 0 6.46533 0.336 6.46533 0.75V4.041C6.46533 4.455 6.12933 4.791 5.71533 4.791Z" fill="#808080"/>
<mask id="mask0_725_215" style="mask-type:alpha" maskUnits="userSpaceOnUse" x="0" y="1" width="20" height="21">
<path fill-rule="evenodd" clip-rule="evenodd" d="M0 1.5791H19.5V21.5H0V1.5791Z" fill="white"/>
</mask>
<g mask="url(#mask0_725_215)">
<path fill-rule="evenodd" clip-rule="evenodd" d="M5.521 3.0791C2.928 3.0791 1.5 4.4621 1.5 6.9731V16.0221C1.5 18.5881 2.928 20.0001 5.521 20.0001H13.979C16.572 20.0001 18 18.6141 18 16.0981V6.9731C18.004 5.7381 17.672 4.7781 17.013 4.1181C16.335 3.4381 15.29 3.0791 13.988 3.0791H5.521ZM13.979 21.5001H5.521C2.116 21.5001 0 19.4011 0 16.0221V6.9731C0 3.6451 2.116 1.5791 5.521 1.5791H13.988C15.697 1.5791 17.11 2.0911 18.075 3.0581C19.012 3.9991 19.505 5.3521 19.5 6.9751V16.0981C19.5 19.4301 17.384 21.5001 13.979 21.5001V21.5001Z" fill="#808080"/>
</g>
</svg>
