<svg width="44" height="44" viewBox="0 0 44 44" fill="none" xmlns="http://www.w3.org/2000/svg">
<path d="M34.8076 18.0301C34.7189 17.072 34.7867 14.4677 37.2816 10.8463C37.4703 10.573 37.4361 10.2044 37.2017 9.9701C36.1845 8.95295 35.5548 8.3111 35.1131 7.86195C34.5323 7.26974 34.2671 6.9999 33.879 6.64803C33.6199 6.41511 33.2278 6.41105 32.9659 6.63937C28.6174 10.4233 23.7874 18.2422 24.4863 27.8216C24.8959 33.4464 28.9987 37.5292 34.2416 37.5292C39.622 37.5292 43.9995 33.1524 43.9995 27.7719C43.9995 22.5814 39.9256 18.3248 34.8076 18.0301ZM34.2416 36.1542C29.7392 36.1542 26.2138 32.6079 25.8573 27.7222C25.8573 27.7222 25.8573 27.7222 25.8573 27.7216C25.0711 16.9478 31.4754 9.94996 33.4104 8.09694C33.5991 8.28291 33.8146 8.50174 34.1322 8.82535C34.5148 9.21475 35.0386 9.74783 35.8308 10.5428C32.8021 15.2089 33.3735 18.5336 33.6239 19.0103C33.7428 19.2366 33.9865 19.389 34.2416 19.389C38.8641 19.389 42.6245 23.1494 42.6245 27.7719C42.6245 32.3937 38.8641 36.1542 34.2416 36.1542Z" fill="#0F97AA"/>
<path d="M10.3907 18.0301C10.3014 17.0748 10.3672 14.4725 12.8647 10.8463C13.0528 10.573 13.0191 10.2045 12.7848 9.97017C11.7697 8.95501 11.1406 8.31385 10.6995 7.86471C10.1168 7.27119 9.85087 7.00059 9.46285 6.64811C9.20366 6.41518 8.81158 6.41181 8.54978 6.63876C4.2012 10.4227 -0.629446 18.2403 0.0680915 27.8217V27.8223C0.47901 33.4465 4.58249 37.5292 9.82537 37.5292C15.2059 37.5292 19.5833 33.1525 19.5833 27.772C19.5833 22.5809 15.5093 18.3236 10.3907 18.0301ZM9.82537 36.1542C5.32375 36.1542 1.79626 32.608 1.4391 27.7216V27.7223C0.654941 16.9459 7.05928 9.94934 8.99418 8.09701C9.18352 8.28298 9.39974 8.50319 9.71798 8.82748C10.1 9.21688 10.623 9.74928 11.4139 10.5429C8.38526 15.2097 8.95664 18.5337 9.20703 19.0097C9.3259 19.236 9.57024 19.3891 9.82537 19.3891C14.4479 19.3891 18.2083 23.1495 18.2083 27.772C18.2083 32.3938 14.4479 36.1542 9.82537 36.1542Z" fill="#0F97AA"/>
</svg>
