<svg width="66" height="42" viewBox="0 0 66 42" fill="none" xmlns="http://www.w3.org/2000/svg">
<g clip-path="url(#clip0_832_2409)">
<path d="M54.7179 19.2549V11.3726H45.0331V0H37.2136V11.3726H22.5142V19.2549H37.2136V34.1222H22.5142V42H37.2136H45.0331V19.2549H54.7179Z" fill="white"/>
<path d="M23.2928 30.6274V22.7451H7.81497V7.87782H23.2928V0H7.81497H0V7.87782V22.7451V30.6274V42H7.81497V30.6274H23.2928Z" fill="white"/>
<path d="M60.3592 30.6274C58.8631 30.6274 57.4283 31.2265 56.3704 32.2929C55.3126 33.3593 54.7183 34.8056 54.7183 36.3137C54.7183 37.8218 55.3126 39.2682 56.3704 40.3345C57.4283 41.4009 58.8631 42 60.3592 42C61.8552 42 63.29 41.4009 64.3479 40.3345C65.4058 39.2682 66.0001 37.8218 66.0001 36.3137C66.0001 34.8056 65.4058 33.3593 64.3479 32.2929C63.29 31.2265 61.8552 30.6274 60.3592 30.6274Z" fill="white"/>
</g>
<defs>
<clipPath id="clip0_832_2409">
<rect width="66" height="42" fill="white"/>
</clipPath>
</defs>
</svg>
