<svg width="28" height="28" viewBox="0 0 28 28" fill="none" xmlns="http://www.w3.org/2000/svg">
<path fill-rule="evenodd" clip-rule="evenodd" d="M13.7395 15.7087C12.959 15.7087 12.1809 15.4509 11.5299 14.9352L6.29736 10.7166C5.92052 10.4132 5.86219 9.86141 6.16436 9.48575C6.46886 9.11125 7.01952 9.05175 7.39519 9.35391L12.623 13.5679C13.2799 14.0882 14.205 14.0882 14.8665 13.5632L20.0419 9.35625C20.4175 9.04941 20.9682 9.10775 21.2739 9.48341C21.5784 9.85791 21.5212 10.4086 21.1467 10.7142L15.962 14.9282C15.3064 15.4486 14.5224 15.7087 13.7395 15.7087Z" fill="white"/>
<mask id="mask0_832_2415" style="mask-type:alpha" maskUnits="userSpaceOnUse" x="1" y="2" width="26" height="24">
<path fill-rule="evenodd" clip-rule="evenodd" d="M1.1665 2.33325H26.2497V25.0833H1.1665V2.33325Z" fill="white"/>
</mask>
<g mask="url(#mask0_832_2415)">
<path fill-rule="evenodd" clip-rule="evenodd" d="M7.97867 23.3333H19.4353C19.4377 23.3309 19.447 23.3333 19.454 23.3333C20.7852 23.3333 21.9658 22.8573 22.8712 21.9531C23.9223 20.9066 24.4998 19.4028 24.4998 17.7193V9.70658C24.4998 6.44808 22.3695 4.08325 19.4353 4.08325H7.981C5.04684 4.08325 2.9165 6.44808 2.9165 9.70658V17.7193C2.9165 19.4028 3.49517 20.9066 4.54517 21.9531C5.4505 22.8573 6.63234 23.3333 7.96234 23.3333H7.97867ZM7.95884 25.0833C6.15867 25.0833 4.551 24.4299 3.30967 23.1933C1.92717 21.8143 1.1665 19.8706 1.1665 17.7193V9.70659C1.1665 5.50309 4.096 2.33325 7.981 2.33325H19.4353C23.3203 2.33325 26.2498 5.50309 26.2498 9.70659V17.7193C26.2498 19.8706 25.4892 21.8143 24.1067 23.1933C22.8665 24.4288 21.2577 25.0833 19.454 25.0833H19.4353H7.981H7.95884Z" fill="white"/>
</g>
</svg>
