<svg width="25" height="26" viewBox="0 0 25 26" fill="none" xmlns="http://www.w3.org/2000/svg">
<path fill-rule="evenodd" clip-rule="evenodd" d="M14.0033 16.8399C15.408 16.8399 16.5513 17.975 16.5513 19.3704V22.959C16.5513 23.2589 16.7917 23.4992 17.0997 23.5062H19.3233C21.0757 23.5062 22.5002 22.0992 22.5002 20.3702V10.1922C22.492 9.5972 22.2085 9.0372 21.722 8.66504L14.0302 2.5307C12.9977 1.71287 11.5533 1.71287 10.5173 2.53304L2.878 8.6627C2.37283 9.04654 2.08933 9.60654 2.0835 10.212V20.3702C2.0835 22.0992 3.508 23.5062 5.26033 23.5062H7.505C7.82116 23.5062 8.07783 23.2554 8.07783 22.9474C8.07783 22.8797 8.086 22.812 8.1 22.7479V19.3704C8.1 17.9832 9.23633 16.8492 10.6305 16.8399H14.0033ZM19.3233 25.2562H17.0787C15.793 25.2259 14.8013 24.2167 14.8013 22.959V19.3704C14.8013 18.9399 14.4432 18.5899 14.0033 18.5899H10.6363C10.2058 18.5922 9.85 18.9434 9.85 19.3704V22.9474C9.85 23.0349 9.83833 23.1189 9.81383 23.1982C9.68783 24.3532 8.70083 25.2562 7.505 25.2562H5.26033C2.54316 25.2562 0.333496 23.064 0.333496 20.3702V10.2039C0.345163 9.04421 0.879496 7.98254 1.80233 7.28371L9.4265 1.16454C11.1053 -0.16546 13.4445 -0.16546 15.1198 1.16221L22.7988 7.28721C23.7007 7.97437 24.235 9.03371 24.2502 10.1794V20.3702C24.2502 23.064 22.0405 25.2562 19.3233 25.2562Z" fill="white"/>
</svg>
