<svg width="28" height="28" viewBox="0 0 28 28" fill="none" xmlns="http://www.w3.org/2000/svg">
<mask id="mask0_832_2425" style="mask-type:alpha" maskUnits="userSpaceOnUse" x="16" y="2" width="11" height="11">
<path fill-rule="evenodd" clip-rule="evenodd" d="M16.7466 2.33374H26.7087V12.2887H16.7466V2.33374Z" fill="white"/>
</mask>
<g mask="url(#mask0_832_2425)">
<path fill-rule="evenodd" clip-rule="evenodd" d="M25.8334 12.2887C25.3936 12.2887 25.0156 11.9585 24.9654 11.5117C24.5232 7.57302 21.4642 4.51636 17.5244 4.07886C17.0449 4.02519 16.6984 3.59352 16.7521 3.11286C16.8046 2.63336 17.2327 2.27986 17.7181 2.34052C22.4757 2.86902 26.1706 6.55919 26.7037 11.3157C26.7574 11.7964 26.4121 12.2292 25.9326 12.2829C25.8999 12.2864 25.8661 12.2887 25.8334 12.2887Z" fill="white"/>
</g>
<path fill-rule="evenodd" clip-rule="evenodd" d="M21.7032 12.3013C21.2925 12.3013 20.9273 12.012 20.8457 11.5943C20.5097 9.86768 19.1785 8.53651 17.4542 8.20168C16.9793 8.10951 16.6702 7.65101 16.7623 7.17618C16.8545 6.70135 17.3212 6.39102 17.7878 6.48435C20.2157 6.95568 22.0905 8.82935 22.563 11.2583C22.6552 11.7343 22.346 12.1928 21.8723 12.285C21.8152 12.2955 21.7592 12.3013 21.7032 12.3013Z" fill="white"/>
<mask id="mask1_832_2425" style="mask-type:alpha" maskUnits="userSpaceOnUse" x="2" y="2" width="25" height="25">
<path fill-rule="evenodd" clip-rule="evenodd" d="M2.33398 2.33325H26.2509V26.2505H2.33398V2.33325Z" fill="white"/>
</mask>
<g mask="url(#mask1_832_2425)">
<path fill-rule="evenodd" clip-rule="evenodd" d="M5.08624 5.90504C5.08858 5.90504 5.03024 5.96571 4.95674 6.03804C4.67441 6.31221 4.08991 6.88271 4.08408 8.07621C4.07474 9.74571 5.17258 12.8455 10.4587 18.1305C15.7192 23.3899 18.8144 24.5005 20.4886 24.5005H20.5131C21.7066 24.4935 22.2759 23.909 22.5501 23.6279C22.6329 23.5427 22.7006 23.4785 22.7484 23.44C23.9116 22.2699 24.5066 21.4007 24.5007 20.8419C24.4937 20.2725 23.7856 19.6005 22.8067 18.6684C22.4952 18.3732 22.1569 18.05 21.7999 17.693C20.8736 16.7702 20.4174 16.9277 19.4082 17.2824C18.0141 17.7712 16.1042 18.4409 13.1281 15.4624C10.1507 12.4862 10.8181 10.5764 11.3046 9.18104C11.6569 8.17304 11.8179 7.71454 10.8927 6.78821C10.5311 6.42654 10.2056 6.08354 9.90574 5.76854C8.97941 4.79554 8.31091 4.09204 7.74508 4.08387H7.73574C7.17691 4.08387 6.30891 4.68121 5.08041 5.90971C5.08391 5.90621 5.08508 5.90504 5.08624 5.90504ZM20.4886 26.2505C17.5812 26.2505 13.7907 23.9359 9.22208 19.3684C4.63475 14.7822 2.31658 10.98 2.33408 8.06688C2.34458 6.14188 3.35375 5.15605 3.73292 4.78622C3.75275 4.76172 3.82042 4.69522 3.84375 4.67188C5.51792 2.99772 6.66825 2.30938 7.76725 2.33388C9.07042 2.35138 9.99908 3.32788 11.1739 4.56338C11.4644 4.86788 11.7782 5.20038 12.1294 5.55038C13.8316 7.25372 13.3474 8.64322 12.9566 9.75855C12.5319 10.9754 12.1644 12.0254 14.3647 14.2257C16.5651 16.4261 17.6139 16.0585 18.8296 15.6304C19.9461 15.2407 21.3321 14.753 23.0377 16.4564C23.3842 16.8029 23.7109 17.1132 24.0142 17.4014C25.2544 18.5821 26.2344 19.5142 26.2507 20.8209C26.2636 21.9339 25.5869 23.0702 23.9162 24.7409L23.1766 24.2392L23.8031 24.8494C23.4332 25.2285 22.4497 26.2389 20.5236 26.2505H20.4886Z" fill="white"/>
</g>
</svg>
