<?xml version="1.0" standalone="no"?>
<!DOCTYPE svg PUBLIC "-//W3C//DTD SVG 20010904//EN"
 "http://www.w3.org/TR/2001/REC-SVG-20010904/DTD/svg10.dtd">
<svg version="1.0" xmlns="http://www.w3.org/2000/svg"
 width="4096.000000pt" height="4096.000000pt" viewBox="0 0 4096.000000 4096.000000"
 preserveAspectRatio="xMidYMid meet">

<g transform="translate(0.000000,4096.000000) scale(0.100000,-0.100000)"
fill="#000000" stroke="none">
<path d="M19770 35759 c-2464 -114 -4858 -819 -6976 -2054 -1485 -866 -2813
-1973 -3934 -3280 -1940 -2263 -3176 -5044 -3550 -7990 -87 -686 -120 -1223
-120 -1955 0 -593 19 -993 71 -1520 389 -3934 2281 -7546 5309 -10130 2254
-1924 5057 -3160 7990 -3524 738 -92 1277 -121 2090 -113 539 5 761 15 1190
52 3481 305 6752 1802 9275 4245 2716 2630 4351 6130 4620 9890 36 505 47
1280 25 1765 -141 3119 -1183 6028 -3052 8523 -1460 1950 -3457 3584 -5644
4621 -1882 892 -3823 1375 -5909 1471 -253 11 -1127 11 -1385 -1z m1310 -1659
c1288 -60 2477 -281 3685 -685 1146 -382 2216 -906 3225 -1580 829 -554 1476
-1088 2185 -1806 381 -387 632 -667 945 -1060 1731 -2165 2746 -4734 2955
-7474 48 -631 48 -1399 0 -2030 -193 -2527 -1073 -4914 -2573 -6976 -280 -385
-623 -806 -943 -1157 l-48 -53 -98 87 c-131 115 -378 300 -543 405 -565 361
-1172 638 -2400 1096 -781 291 -1481 572 -1900 765 -655 300 -1104 604 -1318
891 -65 87 -135 222 -163 317 -23 75 -23 78 -27 838 l-3 763 145 140 c745 720
1216 1661 1318 2634 l12 115 52 34 c143 96 353 294 487 461 338 421 537 931
598 1530 17 178 15 487 -5 626 -45 317 -165 655 -334 944 l-30 50 30 95 c316
1026 499 2908 382 3950 -103 924 -429 1823 -919 2535 -452 657 -1043 1152
-1666 1398 -138 55 -313 109 -427 132 l-84 17 -81 80 c-530 524 -1430 876
-2517 983 -341 34 -919 29 -1345 -10 -1159 -109 -2145 -424 -2983 -952 -824
-520 -1456 -1221 -1882 -2088 -178 -363 -311 -729 -410 -1130 -283 -1146 -249
-2324 126 -4437 31 -172 58 -329 61 -348 4 -29 -5 -53 -58 -145 -171 -299
-291 -628 -351 -965 -20 -109 -23 -159 -23 -390 0 -231 3 -280 22 -385 49
-264 120 -477 243 -733 180 -371 419 -708 757 -1063 l119 -125 17 -142 c106
-860 481 -1662 1103 -2353 112 -125 283 -288 412 -394 l72 -59 0 -717 c0 -454
-4 -746 -11 -796 -46 -340 -296 -677 -761 -1028 -566 -428 -1355 -837 -3093
-1605 -1228 -543 -1782 -837 -2230 -1185 -60 -47 -112 -85 -116 -85 -8 0 -218
223 -380 405 -1971 2213 -3166 4977 -3413 7895 -36 428 -41 553 -41 1150 0
597 5 722 41 1150 221 2611 1205 5113 2833 7200 566 725 1259 1449 1951 2034
1537 1303 3288 2232 5210 2764 979 272 1994 430 3060 475 173 8 949 6 1130 -3z
m-365 -3520 c579 -49 1071 -191 1384 -400 154 -104 196 -154 351 -425 l137
-240 314 -6 c333 -7 391 -14 538 -64 103 -35 255 -117 357 -193 109 -81 307
-278 396 -392 427 -554 696 -1305 758 -2119 34 -450 -13 -1347 -106 -2026 -88
-649 -183 -1096 -365 -1732 -49 -172 -89 -317 -89 -323 0 -6 82 -109 182 -228
214 -256 255 -312 309 -426 65 -140 83 -227 76 -381 -17 -408 -176 -718 -491
-955 -80 -60 -104 -72 -338 -160 l-253 -95 -6 -430 c-6 -482 -12 -548 -80
-822 -21 -89 -60 -220 -86 -290 -95 -259 -273 -574 -447 -789 -153 -190 -400
-419 -510 -473 -22 -12 -123 -76 -223 -143 l-183 -123 0 -1235 c0 -1023 3
-1257 15 -1360 56 -481 222 -877 533 -1269 98 -125 357 -383 499 -498 627
-508 1417 -896 2943 -1443 377 -136 1298 -500 1675 -663 223 -97 251 -110 455
-211 352 -176 549 -297 764 -470 l88 -71 -48 -43 c-162 -144 -619 -500 -907
-706 -1982 -1417 -4323 -2279 -6732 -2481 -374 -31 -503 -36 -970 -42 -624 -7
-1029 10 -1585 68 -2366 246 -4634 1120 -6580 2537 -193 140 -471 354 -490
377 -8 10 23 35 142 112 274 179 496 307 1113 643 215 117 474 259 577 316
113 63 287 148 440 213 1023 440 1672 763 2225 1107 1097 683 1719 1414 1924
2259 66 275 63 189 66 1622 l4 1302 -198 132 c-255 170 -318 217 -463 344
-382 336 -686 793 -827 1245 -79 252 -102 431 -110 840 l-6 325 -170 135
c-129 103 -207 176 -333 310 -403 431 -590 728 -635 1008 -22 133 16 302 109
487 72 145 115 200 293 380 l168 170 -69 241 c-131 459 -325 1503 -419 2254
-66 524 -85 779 -85 1155 0 576 66 1022 221 1499 452 1391 1580 2288 3226
2566 197 33 480 66 672 79 188 12 710 12 850 1z"/>
</g>
</svg>
