<?xml version="1.0" standalone="no"?>
<!DOCTYPE svg PUBLIC "-//W3C//DTD SVG 20010904//EN"
 "http://www.w3.org/TR/2001/REC-SVG-20010904/DTD/svg10.dtd">
<svg version="1.0" xmlns="http://www.w3.org/2000/svg"
 width="4096.000000pt" height="4096.000000pt" viewBox="0 0 4096.000000 4096.000000"
 preserveAspectRatio="xMidYMid meet">

<g transform="translate(0.000000,4096.000000) scale(0.100000,-0.100000)"
fill="#000000" stroke="none">
<path d="M2775 29208 c-418 -77 -762 -142 -764 -144 -6 -6 82 -447 148 -745
407 -1820 1079 -3557 2009 -5189 483 -848 1072 -1711 1676 -2458 100 -123 187
-232 194 -241 11 -16 -186 -216 -1825 -1854 l-1838 -1836 1207 -1208 1208
-1208 1838 1838 1839 1839 64 -54 c135 -114 423 -341 639 -505 1196 -904 2491
-1659 3880 -2261 215 -93 615 -255 810 -327 69 -26 126 -48 128 -49 1 -2 -299
-1129 -668 -2506 -368 -1376 -667 -2506 -664 -2511 3 -5 11 -9 17 -9 7 0 744
-196 1639 -437 896 -240 1630 -434 1631 -432 2 2 305 1129 674 2504 l670 2500
34 -1 c19 -1 151 -20 294 -42 1408 -220 2908 -276 4345 -162 490 39 923 90
1415 165 159 25 292 41 296 37 3 -4 307 -1131 675 -2504 368 -1374 673 -2498
679 -2498 18 0 3270 872 3277 879 4 4 -294 1133 -662 2510 -369 1377 -669
2505 -668 2506 2 1 89 35 193 74 869 331 1740 742 2565 1209 910 515 1827
1144 2642 1812 l122 100 1838 -1837 1838 -1838 1207 1208 1208 1207 -1837
1837 -1838 1838 127 155 c605 742 1176 1565 1655 2385 954 1632 1656 3399
2078 5227 82 357 186 875 177 884 -2 2 -347 67 -766 143 l-763 139 -187 -132
c-1773 -1257 -3707 -2322 -5717 -3149 -3011 -1240 -6206 -1958 -9474 -2131
-1020 -54 -2143 -55 -3150 -1 -3593 193 -7104 1052 -10395 2543 -1680 761
-3366 1733 -4837 2788 -64 46 -118 84 -120 83 -2 0 -345 -64 -763 -141z"/>
</g>
</svg>
