<?xml version="1.0" standalone="no"?>
<!DOCTYPE svg PUBLIC "-//W3C//DTD SVG 20010904//EN"
 "http://www.w3.org/TR/2001/REC-SVG-20010904/DTD/svg10.dtd">
<svg version="1.0" xmlns="http://www.w3.org/2000/svg"
 width="4096.000000pt" height="4096.000000pt" viewBox="0 0 4096.000000 4096.000000"
 preserveAspectRatio="xMidYMid meet">

<g transform="translate(0.000000,4096.000000) scale(0.100000,-0.100000)"
fill="#000000" stroke="none">
<path d="M19890 30710 c-4137 -163 -7877 -1838 -12255 -5489 -1357 -1131
-2687 -2361 -4484 -4148 l-596 -592 1255 -1253 c1812 -1810 2596 -2561 3595
-3444 3334 -2947 6267 -4545 9555 -5204 1067 -214 2100 -320 3280 -337 1818
-25 3566 250 5343 841 2863 952 5696 2700 8762 5405 986 870 1758 1603 3388
3217 l668 662 -252 283 c-2041 2295 -3828 4022 -5619 5431 -1791 1408 -3550
2471 -5380 3250 -703 300 -1532 589 -2258 787 -1203 329 -2315 509 -3592 581
-249 14 -1143 20 -1410 10z m1032 -2940 c1581 -106 3020 -703 4230 -1757 154
-134 532 -511 664 -663 703 -810 1196 -1692 1506 -2695 320 -1037 405 -2154
247 -3249 -192 -1328 -742 -2574 -1598 -3616 -296 -360 -706 -765 -1071 -1057
-1067 -852 -2328 -1372 -3680 -1518 -498 -53 -1138 -45 -1645 20 -1294 166
-2531 701 -3555 1534 -373 303 -761 691 -1062 1061 -1226 1509 -1806 3455
-1607 5399 122 1199 516 2309 1175 3314 284 432 541 745 938 1143 320 320 487
464 816 709 1052 781 2330 1263 3625 1364 77 6 158 13 180 15 103 8 700 5 837
-4z"/>
<path d="M20084 24725 c-919 -95 -1766 -480 -2424 -1102 -382 -362 -652 -717
-885 -1166 -240 -463 -386 -951 -457 -1527 -18 -142 -18 -758 0 -900 108 -878
401 -1587 930 -2252 115 -145 446 -483 582 -595 635 -521 1327 -824 2135 -934
194 -26 634 -37 838 -20 836 71 1603 375 2257 898 166 132 448 407 583 568
558 664 884 1417 992 2285 30 242 29 867 -1 1023 l-6 27 -36 -28 c-203 -158
-480 -303 -752 -392 -244 -81 -441 -116 -705 -126 -800 -32 -1583 324 -2088
951 -615 762 -740 1808 -322 2692 85 179 179 332 313 506 24 32 42 60 40 62
-2 2 -57 11 -123 20 -164 23 -688 29 -871 10z"/>
</g>
</svg>
