<svg width="50" height="50" viewBox="0 0 50 50" fill="none" xmlns="http://www.w3.org/2000/svg">
<circle cx="25" cy="25" r="25" transform="rotate(-180 25 25)" fill="white"/>
<path d="M27.059 35.0001C26.6279 35.0001 26.1947 34.832 25.8652 34.496L17.9965 26.5095C17.6783 26.1849 17.5 25.7453 17.5 25.285C17.5 24.827 17.6783 24.3874 17.9965 24.0629L25.8652 16.0717C26.5264 15.3996 27.596 15.3996 28.2572 16.0763C28.9161 16.753 28.9139 17.8462 28.2527 18.5183L21.589 25.285L28.2527 32.0517C28.9139 32.7238 28.9161 33.8147 28.2572 34.4914C27.9277 34.832 27.4922 35.0001 27.059 35.0001Z" fill="#130F26"/>
</svg>
