<svg width="141" height="38" viewBox="0 0 141 38" fill="none" xmlns="http://www.w3.org/2000/svg">
<path d="M60.2063 13.8138C54.5426 15.0634 48.797 16.0679 43.0242 16.9067C44.5255 16.4746 46.0167 16.0591 47.4867 15.6538C53.7223 13.9347 60.1786 12.3898 66.5999 11.5138C67.239 11.4266 68.1644 11.3202 66.7356 11.8545C64.6001 12.6531 62.434 13.3223 60.2063 13.8138Z" fill="black"/>
<path d="M62.1566 1.01877C54.4497 0.833546 47.8308 2.02278 40.4825 4.42623C31.954 7.21574 22.7463 10.6083 15.4844 16.0798C8.47585 21.3604 22.1538 19.3562 23.9302 19.1806C36.0463 17.9825 48.3069 16.4392 60.2063 13.8138C62.434 13.3223 64.6001 12.6531 66.7356 11.8545C68.1644 11.3202 67.239 11.4266 66.5999 11.5138C60.1786 12.3898 53.7223 13.9347 47.4867 15.6538C38.8235 18.0423 29.4283 20.7852 21.522 25.1777C20.2844 25.8653 19.1505 27.225 21.4202 26.9496C27.6528 26.1932 33.8542 24.8786 40.0585 23.8999C43.4559 23.364 41.2281 23.7678 39.3293 24.2236C33.4641 25.6313 27.6611 27.176 21.929 29.0622C15.1776 31.2838 7.78873 33.1848 1.50993 36.6438C-1.13302 38.0998 7.21514 34.6728 10.1253 33.8838C31.6104 28.0583 53.4472 23.1423 75.4527 19.7939C92.7401 17.1634 110.059 14.6319 127.365 12.1271C131.504 11.528 135.801 10.5256 140 10.5256" stroke="black" stroke-linecap="round"/>
</svg>
