<svg width="44" height="42" viewBox="0 0 44 42" fill="none" xmlns="http://www.w3.org/2000/svg">
<path d="M39.0156 8.97588H33.5156V5.70312C33.5156 2.95476 31.2796 0.71875 28.5312 0.71875H15.4688C12.7204 0.71875 10.4844 2.95476 10.4844 5.70312V8.97588H4.98438C2.23601 8.97588 0 11.2119 0 13.9603V36.2969C0 39.0452 2.23601 41.2812 4.98438 41.2812H39.0156C41.764 41.2812 44 39.0452 44 36.2969V13.9603C44 11.2119 41.764 8.97588 39.0156 8.97588ZM15.4688 2.4375H28.5312C30.0345 2.4375 31.303 3.45878 31.6813 4.84375H12.3187C12.697 3.45878 13.9655 2.4375 15.4688 2.4375ZM1.71875 13.9603C1.71875 12.1596 3.18373 10.6946 4.98438 10.6946H18.1437C18.6183 10.6946 19.0031 10.3099 19.0031 9.83526C19.0031 9.36063 18.6183 8.97588 18.1437 8.97588H12.2031V6.5625H31.7969V8.97588H25.8781C25.4035 8.97588 25.0187 9.36071 25.0187 9.83526C25.0187 10.3098 25.4035 10.6946 25.8781 10.6946H39.0156C40.8163 10.6946 42.2812 12.1596 42.2812 13.9603V16.7008C42.2812 20.7628 38.9765 24.0675 34.9144 24.0675H26.1359V22.2407C26.1359 21.1617 25.2581 20.284 24.1791 20.284H19.8426C18.7637 20.284 17.8858 21.1618 17.8858 22.2407V24.0675H9.08557C5.02348 24.0675 1.71875 20.7627 1.71875 16.7008V13.9603ZM19.6047 25.7862H24.4172V27.0156C24.4172 28.3425 23.3377 29.4219 22.0109 29.4219C20.684 29.4219 19.6047 28.3425 19.6047 27.0156V25.7862ZM19.6047 24.0675V22.2406C19.6047 22.1094 19.7114 22.0025 19.8427 22.0025H24.1792C24.3104 22.0025 24.4172 22.1093 24.4172 22.2406V24.0675H19.6047ZM42.2812 36.2969C42.2812 38.0975 40.8163 39.5625 39.0156 39.5625H4.98438C3.18373 39.5625 1.71875 38.0975 1.71875 36.2969V22.0119C3.37055 24.2966 6.05713 25.7862 9.08557 25.7862H17.8859V27.0156C17.8859 29.2902 19.7363 31.1406 22.0109 31.1406C24.2855 31.1406 26.1359 29.2902 26.1359 27.0156V25.7862H34.9144C37.9428 25.7862 40.6294 24.2966 42.2812 22.0119V36.2969Z" fill="#063C43"/>
</svg>
