<svg width="44" height="44" viewBox="0 0 44 44" fill="none" xmlns="http://www.w3.org/2000/svg">
<g clip-path="url(#clip0_0_2889)">
<path d="M32.7071 17.6206L35.2923 17.4568C35.2967 17.4564 35.3014 17.4561 35.3061 17.4557C37.1484 17.3003 38.802 16.3352 39.8433 14.8071L41.887 11.8087C43.6659 9.19835 44.355 6.04551 43.827 2.93127C43.7233 2.31964 43.4104 1.75601 42.9465 1.34478C42.4822 0.933219 41.8853 0.690177 41.2657 0.660636C38.1095 0.509573 35.063 1.57205 32.685 3.651L29.9531 6.03946C28.561 7.25635 27.801 9.01371 27.8674 10.8617C27.8678 10.8661 27.8678 10.8708 27.8681 10.8755L28.0155 13.4613C28.0729 14.4694 27.7033 15.4641 27.0034 16.1885L5.66059 38.114C5.08924 38.7099 4.79416 39.5273 4.83008 40.4159C4.86969 41.3941 5.31852 42.3549 6.03086 42.9863C6.67438 43.5566 7.55894 43.8816 8.44316 43.8816C8.53782 43.8816 8.63249 43.8779 8.72682 43.8702C9.61339 43.7993 10.3898 43.4086 10.9155 42.7661L30.1196 18.954C30.7564 18.1704 31.6997 17.6844 32.7071 17.6206ZM29.0944 18.1241L9.89201 41.9342C9.59862 42.2928 9.14744 42.5136 8.62175 42.5556C7.99635 42.6056 7.35517 42.3975 6.90601 41.9994C6.45685 41.6009 6.17353 40.9893 6.14835 40.3625C6.12687 39.8358 6.29169 39.3615 6.60926 39.0305L27.9503 17.1066C28.9071 16.1167 29.4106 14.7608 29.3327 13.3865L29.1854 10.8073C29.1353 9.36082 29.7312 7.98548 30.8212 7.03245L33.5531 4.64398C35.6733 2.79062 38.3904 1.84429 41.2029 1.9779C41.5231 1.99334 41.8313 2.11889 42.0713 2.33172C42.3113 2.54422 42.4728 2.8356 42.5265 3.15149C42.9972 5.92801 42.3828 8.73844 40.797 11.0655L38.7533 14.0642C37.9379 15.2606 36.6438 16.017 35.2017 16.1408L32.6235 16.304C31.2499 16.3913 29.9642 17.0539 29.0944 18.1241Z" fill="#BF380E"/>
<path d="M42.7816 37.9475L28.4713 24.9135C28.202 24.6681 27.7851 24.6876 27.5394 24.9568C27.2943 25.226 27.3138 25.6433 27.583 25.8887L41.8896 38.9197C42.23 39.2342 42.423 39.6978 42.4334 40.2249C42.4459 40.8519 42.1998 41.4793 41.7751 41.904C41.3508 42.3283 40.7244 42.575 40.096 42.5623C39.569 42.5519 39.1054 42.3589 38.7942 42.0222L26.0425 28.0224C25.7971 27.7528 25.3798 27.7337 25.1106 27.9787C24.8414 28.2241 24.8219 28.6414 25.0673 28.9106L37.822 42.9138C38.3826 43.52 39.1809 43.8638 40.0702 43.8812C40.0933 43.8816 40.1161 43.8819 40.1393 43.8819C41.095 43.8819 42.0508 43.4942 42.7077 42.8369C43.3811 42.1635 43.7715 41.1776 43.7521 40.199C43.7346 39.3098 43.3912 38.5115 42.7816 37.9475Z" fill="#BF380E"/>
<path d="M7.95859 17.4957C9.05027 18.5014 10.4686 19.0748 11.9523 19.1104C11.957 19.1107 11.9617 19.1107 11.9661 19.1107L14.5563 19.1188C15.5661 19.1218 16.5366 19.5505 17.2177 20.2927L18.3587 21.5451C18.489 21.6882 18.6672 21.7607 18.8465 21.7607C19.0049 21.7607 19.1641 21.7039 19.2903 21.5888C19.5598 21.3434 19.5793 20.9261 19.3339 20.6569L18.1912 19.4027C17.2607 18.3883 15.9374 17.8042 14.5607 17.7995L11.9775 17.7914C10.8298 17.7622 9.7324 17.3228 8.88208 16.553L1.37562 7.62962C1.29909 7.53831 1.30479 7.40604 1.38905 7.32179C1.44679 7.26371 1.5146 7.25532 1.54985 7.25532C1.5851 7.25532 1.65291 7.26371 1.71098 7.32179L8.5437 14.1548C9.21912 14.8303 10.3182 14.8303 10.9936 14.1545L11.7966 13.3519V13.3515L13.2223 11.9258C13.2223 11.9258 13.2226 11.9258 13.2226 11.9255L13.2229 11.9252L14.0256 11.1225C14.701 10.4471 14.701 9.34804 14.0256 8.67262L7.19287 1.8399C7.10425 1.75128 7.10425 1.60659 7.19287 1.51797C7.27713 1.43371 7.40939 1.428 7.5007 1.50454L16.4241 9.01133C17.1942 9.86131 17.6336 10.959 17.6628 12.1064L17.6706 14.6899C17.6753 16.0663 18.2597 17.3896 19.2755 18.3221L20.4981 19.4356C20.7677 19.681 21.1846 19.6616 21.43 19.3923C21.6751 19.1228 21.6556 18.7058 21.3864 18.4605L20.1658 17.3486C19.4215 16.6658 18.9932 15.695 18.9898 14.6856L18.9818 12.0954C18.9818 12.0907 18.9818 12.086 18.9814 12.0813C18.9459 10.5975 18.3725 9.17918 17.3668 8.0875C17.348 8.06703 17.3278 8.04756 17.3063 8.02943L8.34967 0.495108C7.73065 -0.0258891 6.83233 0.0130515 6.26031 0.585074C5.65707 1.18832 5.65707 2.16955 6.26031 2.77246L13.093 9.60551C13.2542 9.76665 13.2542 10.0288 13.093 10.19L12.7563 10.5263L5.14111 2.91144C4.88363 2.65362 4.46602 2.65362 4.20855 2.91144C3.95107 3.16891 3.95107 3.58652 4.20855 3.84399L11.8238 11.4592L11.3303 11.9524L3.71508 4.33746C3.4576 4.07999 3.04 4.07999 2.78252 4.33746C2.52471 4.59494 2.52471 5.01255 2.78252 5.27002L10.3974 12.8852L10.061 13.2219C9.89991 13.3831 9.63773 13.3831 9.4766 13.2219L2.64354 6.38923C2.35149 6.09717 1.96309 5.93604 1.54985 5.93604C1.13661 5.93604 0.748211 6.09717 0.456157 6.38923C-0.115866 6.96125 -0.15447 7.85957 0.366191 8.47892L7.90085 17.4352C7.91864 17.4567 7.93811 17.4769 7.95859 17.4957Z" fill="#BF380E"/>
</g>
<defs>
<clipPath id="clip0_0_2889">
<rect width="44" height="43.9142" fill="white"/>
</clipPath>
</defs>
</svg>
