<svg width="44" height="44" viewBox="0 0 44 44" fill="none" xmlns="http://www.w3.org/2000/svg">
<g clip-path="url(#clip0_0_2927)">
<path d="M1.64267 31.439C18.3641 26.6856 24.476 36.2913 43.0371 31.4463C43.7259 31.2665 44.1385 30.5623 43.9587 29.8735C43.779 29.1847 43.0747 28.7721 42.3859 28.9518C38.7419 29.903 35.5834 30.2551 32.7231 30.2589L28.9859 24.2355C31.195 26.9805 35.3007 27.1387 37.7063 24.5807C38.7639 23.4561 39.3203 21.9869 39.273 20.4438C39.1144 15.2709 32.7764 12.9498 29.2859 16.6613C27.6044 18.4494 27.2994 20.9917 28.2461 23.043L23.1325 14.8012L30.7209 12.6115C33.0776 11.9314 34.1913 9.23386 32.994 7.08825C32.1245 5.53038 30.32 4.78771 28.6061 5.28236L17.1177 8.59757C14.139 9.45721 12.8051 12.9198 14.4407 15.556L17.9131 21.1525C15.41 22.7063 7.47078 27.6295 7.38648 27.6879C5.39367 27.8985 3.2595 28.2991 0.937899 28.9591C0.253149 29.1537 -0.144226 29.8667 0.0504221 30.5515C0.244985 31.2364 0.95818 31.6336 1.64267 31.439ZM31.1638 18.4277C32.3773 17.1374 34.4028 17.0789 35.6894 18.2888C36.9783 19.501 37.0406 21.5253 35.8283 22.8145C34.6163 24.1032 32.5918 24.1657 31.3027 22.9533C30.0137 21.7411 29.9515 19.7168 31.1638 18.4277ZM20.7832 20.8888L16.6313 14.1969C15.898 13.015 16.495 11.4607 17.8324 11.0747L29.3207 7.75951C29.8765 7.59898 30.4609 7.83986 30.7427 8.34466C31.1314 9.04136 30.7681 9.91448 30.0061 10.1344L20.7823 12.7961C19.9614 13.0331 19.5947 13.9896 20.0444 14.7143L29.608 30.1282C23.5935 29.6233 18.7065 27.8093 12.5185 27.5338L20.3675 22.6637C20.9724 22.2884 21.1586 21.4937 20.7832 20.8888Z" fill="#0DAEC4"/>
<path d="M42.3851 34.9674C24.6267 39.603 18.3953 30.0117 0.936922 34.9747C0.252172 35.1693 -0.145203 35.8823 0.0494455 36.5671C0.244094 37.252 0.957289 37.6493 1.64187 37.4546C18.3633 32.7012 24.4752 42.3069 43.0362 37.4619C43.7251 37.2821 44.1377 36.5779 43.9579 35.8891C43.7781 35.2002 43.0739 34.7877 42.3851 34.9674Z" fill="#0DAEC4"/>
</g>
<defs>
<clipPath id="clip0_0_2927">
<rect width="44" height="44" fill="white"/>
</clipPath>
</defs>
</svg>
