<svg width="20" height="21" viewBox="0 0 20 21" fill="none" xmlns="http://www.w3.org/2000/svg">
<g clip-path="url(#clip0_0_1594)">
<path d="M9.27114 15.2164C9.12472 15.109 8.91868 15.1403 8.81108 15.2868L8.77044 15.3421C8.66295 15.4885 8.69424 15.6943 8.84047 15.802C8.89922 15.8453 8.96765 15.8662 9.03545 15.8662C9.13632 15.8662 9.23589 15.82 9.30038 15.7326L9.34163 15.6765C9.44919 15.53 9.41763 15.324 9.27114 15.2164Z" fill="white"/>
<path d="M9.35676 18.3475L8.5103 16.8084L9.3006 15.732C9.40824 15.5855 9.37664 15.3795 9.23011 15.2719C9.08361 15.1643 8.87762 15.1959 8.77006 15.3424L7.85535 16.5882C7.7795 16.6914 7.77052 16.8293 7.83223 16.9416L8.78002 18.6647V18.6647C8.83998 18.7736 8.95256 18.8353 9.06871 18.8353C9.12236 18.8352 9.17673 18.8221 9.22703 18.7945C9.38626 18.7069 9.44436 18.5068 9.35676 18.3475Z" fill="white"/>
<path d="M11.8095 16.5882L10.8985 15.3475C10.823 15.2447 10.6949 15.1947 10.5697 15.2195C10.4445 15.2441 10.3448 15.3389 10.3139 15.4626C10.2901 15.5577 10.3099 15.6583 10.3679 15.7373L11.1543 16.8084L10.3137 18.3371C10.287 18.3857 10.2729 18.4404 10.2729 18.4959C10.2729 18.6461 10.3747 18.7773 10.5202 18.8147C10.5475 18.8217 10.5749 18.8251 10.6021 18.8251C10.7199 18.8251 10.8316 18.7615 10.8905 18.6545L11.8326 16.9417C11.8943 16.8293 11.8853 16.6915 11.8095 16.5882Z" fill="white"/>
<path d="M12.3312 11.416C12.223 11.3592 12.0921 11.3669 11.9914 11.4363C11.7956 11.5712 11.614 11.7141 11.4515 11.861C10.5657 12.6617 9.7242 12.5533 9.69124 12.5486C9.67139 12.5455 9.6512 12.544 9.63124 12.5447C9.28118 12.5537 8.65004 12.2338 7.98235 11.7094C7.88023 11.6292 7.77552 11.5528 7.67096 11.4822C7.57013 11.4141 7.43983 11.4072 7.33238 11.4644C7.2249 11.5215 7.15771 11.6333 7.15771 11.755V12.8841C7.15771 12.9839 7.20315 13.0783 7.28102 13.1408C7.29022 13.1482 7.2998 13.155 7.30968 13.1614L9.64345 14.7208C9.64383 14.7211 9.64417 14.7214 9.64455 14.7216L9.65071 14.7257C9.70565 14.7621 9.76895 14.7804 9.83249 14.7804C9.88594 14.7804 9.9394 14.7675 9.98826 14.7414C9.99856 14.7358 10.0084 14.7298 10.018 14.7233C10.0191 14.7226 10.0202 14.7219 10.0213 14.7211C10.0226 14.7203 10.0239 14.7194 10.0252 14.7185L12.3534 13.1628C12.3628 13.1568 12.3719 13.1504 12.3807 13.1436C12.4606 13.0812 12.5073 12.9855 12.5073 12.8842V11.7074C12.5073 11.585 12.4395 11.4729 12.3312 11.416ZM11.849 12.708L9.83245 14.0555L7.81597 12.708V12.4087C8.30697 12.7655 9.02926 13.2031 9.61801 13.2031C9.61923 13.2031 9.62059 13.2031 9.62185 13.2031C9.81952 13.225 10.8276 13.2844 11.849 12.3883V12.708H11.849Z" fill="white"/>
<path d="M10.1569 14.3974C10.1352 14.2669 10.0373 14.1621 9.90861 14.1314C9.77979 14.1008 9.64528 14.1501 9.56695 14.2568L8.81045 15.2872C8.70285 15.4337 8.73441 15.6397 8.88098 15.7473C8.93965 15.7904 9.00786 15.8111 9.07549 15.8111C9.17671 15.8111 9.27655 15.7646 9.34111 15.6767L10.0937 14.6517C10.1365 14.5958 10.1614 14.5261 10.1614 14.4517C10.1614 14.4336 10.1599 14.4153 10.1569 14.3974Z" fill="white"/>
<path d="M14.8471 3.78683C14.8405 3.73528 14.6863 2.62256 13.6389 2.18361C13.6694 1.98818 13.6662 1.73701 13.5421 1.49265C13.3753 1.16423 13.0463 0.950208 12.564 0.856448C12.5433 0.852418 12.5223 0.850403 12.5012 0.850403H8.08367C6.28992 0.850403 4.83057 2.30972 4.83057 4.10355V5.83696C4.83057 6.28857 4.98451 6.72897 5.26397 7.07694C5.40251 7.24947 5.57315 7.55079 5.59889 8.00636C5.60893 8.18422 5.75782 8.32166 5.93678 8.31672C6.11487 8.3117 6.25662 8.16585 6.25662 7.98773V5.72776C6.4801 4.80351 7.24284 4.62364 7.37397 4.59934H8.80288C8.97097 4.59934 9.13624 4.57368 9.29422 4.52303C9.56592 4.43589 9.99696 4.27552 10.3108 4.15632C10.5207 4.07651 10.7532 4.07359 10.9652 4.14811L12.495 4.68512C13.2597 4.96723 13.3962 5.6386 13.4131 5.74407V8.45637C13.4131 8.62864 13.5459 8.77157 13.7177 8.78438C13.7261 8.78499 13.7343 8.78533 13.7425 8.78533C13.904 8.78529 14.0433 8.66701 14.0678 8.50492C14.0691 8.49645 14.2005 7.64755 14.6243 6.96789C14.7717 6.73129 14.8497 6.46153 14.8497 6.18778V3.82839C14.8497 3.81451 14.8488 3.80064 14.8471 3.78683ZM14.1914 6.18763C14.1914 6.33465 14.1499 6.4805 14.0714 6.61019V5.72157C14.0714 5.70967 14.0707 5.69784 14.0694 5.68602C14.0642 5.63822 13.9282 4.5103 12.7198 4.06636C12.7183 4.06583 12.7168 4.0653 12.7153 4.06477L11.1833 3.52692C11.0105 3.46628 10.8298 3.43601 10.6492 3.43601C10.455 3.43601 10.2609 3.47103 10.077 3.54099C9.63763 3.7079 9.29738 3.83075 9.09317 3.89622C9.00028 3.92599 8.90261 3.94112 8.80284 3.94112H7.34736C7.33325 3.94112 7.31911 3.94203 7.30508 3.94382C7.24938 3.95105 5.93663 4.13773 5.60627 5.61845C5.60102 5.64199 5.59836 5.66602 5.59836 5.69012V6.3675C5.52669 6.20188 5.48875 6.02098 5.48875 5.837V4.10362C5.48875 2.67282 6.65283 1.50873 8.0836 1.50873H12.468C12.6495 1.5474 12.8701 1.62675 12.9538 1.78819C13.0562 1.98578 12.9395 2.25786 12.9394 2.25809C12.8973 2.34763 12.8978 2.45131 12.9406 2.54047C12.9834 2.62963 13.0641 2.6948 13.1603 2.71795C13.9982 2.91965 14.1691 3.7233 14.1914 3.85329V6.18763H14.1914Z" fill="white"/>
<path d="M14.0692 5.68583C14.0641 5.63804 13.9281 4.51011 12.7196 4.06618C12.7181 4.06565 12.7166 4.06511 12.7151 4.06458L11.1831 3.52674C10.8245 3.40089 10.4317 3.40591 10.0768 3.54073C9.63741 3.70764 9.29716 3.83049 9.09295 3.896C9.00007 3.92577 8.90239 3.94086 8.80262 3.94086H7.34715C7.33304 3.94086 7.3189 3.94177 7.30487 3.94356C7.24917 3.95079 5.93642 4.13747 5.60605 5.61819C5.60081 5.64173 5.59814 5.66576 5.59814 5.68986V8.51923C5.59814 8.52166 5.59818 8.52409 5.59822 8.52653C5.60039 8.62481 5.66993 10.9459 7.27365 12.0074L7.28194 12.0132C7.28882 12.0181 7.2957 12.023 7.30289 12.0278C7.39433 12.0895 7.48615 12.1566 7.57596 12.2271C8.04316 12.5939 8.92361 13.2031 9.61817 13.2031C9.61947 13.2031 9.62068 13.2031 9.62201 13.2031C9.65973 13.2072 9.72707 13.2128 9.81839 13.2128C10.212 13.2128 11.0518 13.1096 11.893 12.3492C12.0342 12.2216 12.1929 12.0968 12.365 11.9783L12.3896 11.9611C12.3976 11.9554 12.4056 11.9497 12.4139 11.9441C12.9489 11.5849 13.8754 10.6577 14.0699 8.48546C14.0708 8.47573 14.0712 8.46588 14.0712 8.45607V5.72138C14.0712 5.70952 14.0705 5.69769 14.0692 5.68583ZM13.4129 8.44121C13.2335 10.4016 12.3983 11.1616 12.0469 11.3976C12.0344 11.406 12.0221 11.4147 12.0098 11.4234L11.9915 11.4362C11.7957 11.5711 11.6141 11.714 11.4516 11.8608C10.5692 12.6586 9.73037 12.554 9.68924 12.5482C9.67011 12.5453 9.65072 12.5441 9.63137 12.5447C9.28131 12.5536 8.65016 12.2338 7.98248 11.7094C7.88035 11.6291 7.77564 11.5527 7.67124 11.4823L7.66314 11.4766C7.65523 11.4709 7.64736 11.4654 7.63808 11.4592C6.34393 10.6026 6.25925 8.59812 6.2564 8.51447V5.72754C6.48069 4.79991 7.24814 4.62208 7.37323 4.59912H8.80266C8.97075 4.59912 9.13603 4.57345 9.29401 4.52281C9.5657 4.43567 9.99679 4.27529 10.3106 4.1561C10.5205 4.07629 10.753 4.07336 10.965 4.14789L12.4948 4.68489C13.2595 4.96701 13.396 5.63838 13.4129 5.74385V8.44121H13.4129Z" fill="white"/>
<path d="M10.1273 14.3044C10.076 14.2018 9.97501 14.1333 9.86076 14.1236C9.7467 14.1141 9.63545 14.1643 9.56758 14.2568L8.77918 15.3305C8.6717 15.477 8.7031 15.6828 8.84944 15.7905C8.90815 15.8337 8.97647 15.8545 9.04419 15.8545C9.14517 15.8545 9.24486 15.8082 9.30938 15.7206L10.0978 14.6508C10.1395 14.5942 10.162 14.5219 10.162 14.4516C10.1621 14.4006 10.1501 14.3501 10.1273 14.3044Z" fill="white"/>
<path d="M10.1481 19.6037C10.0244 19.4744 9.82013 19.4675 9.68812 19.5883L9.61288 19.6571C9.50023 19.7601 9.47319 19.9271 9.54764 20.0604L9.54996 20.0645C9.60022 20.1546 9.68987 20.2159 9.79203 20.2301C9.80717 20.2322 9.8223 20.2332 9.83735 20.2332C9.924 20.2332 10.0079 20.1989 10.0701 20.1368L10.143 20.0638C10.2695 19.9373 10.2717 19.7329 10.1481 19.6037Z" fill="white"/>
<path d="M10.0528 19.6571L9.97753 19.5883C9.84552 19.4675 9.6412 19.4744 9.51755 19.6037C9.39387 19.733 9.39615 19.9374 9.52269 20.0639L9.59569 20.1369C9.65785 20.199 9.74173 20.2332 9.82838 20.2332C9.84385 20.2332 9.8594 20.2322 9.87495 20.2299C9.97746 20.2153 10.0671 20.1532 10.117 20.0624L10.1193 20.0583C10.1922 19.9252 10.1647 19.7595 10.0528 19.6571Z" fill="white"/>
<path d="M10.0579 19.662L10.0575 19.6616C10.0066 19.6141 9.94089 19.5828 9.86846 19.5748C9.77147 19.5643 9.67699 19.5971 9.60828 19.6611L9.60729 19.662C9.54076 19.7227 9.50202 19.808 9.50008 19.8981C9.49814 19.9882 9.53319 20.0751 9.59703 20.1386L9.60049 20.142C9.66471 20.2059 9.74862 20.2378 9.83257 20.2378C9.91682 20.2378 10.001 20.2056 10.0653 20.1414L10.0687 20.138C10.1323 20.0743 10.1671 19.9875 10.165 19.8977C10.163 19.8077 10.1243 19.7226 10.0579 19.662Z" fill="white"/>
<path d="M9.93975 14.1328C9.80345 14.0892 9.65387 14.1398 9.57087 14.2565C9.47803 14.3872 9.49335 14.5654 9.60646 14.679C9.67011 14.743 9.75459 14.7757 9.83972 14.7757C9.90583 14.7757 9.97229 14.756 10.0296 14.7156C10.1172 14.654 10.1694 14.5536 10.1694 14.4464V14.4456C10.1694 14.3024 10.0762 14.1764 9.93975 14.1328Z" fill="white"/>
<path d="M10.1005 14.2538L10.0977 14.25C10.0132 14.1357 9.86495 14.0886 9.73002 14.1331C9.59508 14.1775 9.50391 14.3036 9.50391 14.4456V14.4513C9.50391 14.5724 9.57193 14.6829 9.67869 14.7402C9.72705 14.7662 9.78043 14.779 9.83374 14.779C9.89803 14.779 9.96225 14.7604 10.0175 14.7238C10.0927 14.674 10.1442 14.5954 10.1599 14.5066C10.1756 14.4178 10.1541 14.3263 10.1005 14.2538Z" fill="white"/>
<path d="M19.5493 18.8387L19.1248 16.2749C18.991 15.4669 18.4294 14.7918 17.6593 14.5133L13.5517 13.0272C13.4251 12.9814 13.2835 13.0173 13.194 13.1178C13.1045 13.2183 13.0852 13.3631 13.1452 13.4836L14.0028 15.2034L13.1613 15.2164C13.0471 15.2182 12.9419 15.279 12.8835 15.3773C12.8251 15.4755 12.8218 15.597 12.8748 15.6982L13.22 16.3572L9.68773 19.5885C9.68412 19.5918 9.68059 19.5952 9.67713 19.5986L9.6042 19.6715C9.5009 19.7749 9.47805 19.934 9.5482 20.0622L9.55078 20.0669C9.60854 20.1724 9.71925 20.238 9.83955 20.238H18.3627C18.7168 20.238 19.0512 20.0832 19.2801 19.8131C19.5091 19.5431 19.6072 19.1879 19.5493 18.8387ZM18.7782 19.3874C18.6744 19.5097 18.523 19.5798 18.3628 19.5798H10.6724L13.8514 16.6718C13.9617 16.571 13.9902 16.4086 13.9208 16.2763L13.7061 15.8663L14.5359 15.8535C14.649 15.8518 14.7533 15.7921 14.8121 15.6955C14.8708 15.5988 14.8759 15.4788 14.8254 15.3775L14.1016 13.9261L17.4355 15.1322C17.9821 15.3299 18.3806 15.809 18.4755 16.3824L18.9001 18.9462C18.9001 18.9463 18.9001 18.9463 18.9001 18.9463C18.9262 19.1044 18.8818 19.2651 18.7782 19.3874Z" fill="white"/>
<path d="M10.0607 19.665L10.0568 19.6616C9.92657 19.5436 9.72651 19.5489 9.60256 19.6735L9.59914 19.677C9.50542 19.7713 9.47762 19.9127 9.52865 20.0354C9.57971 20.1582 9.69963 20.2382 9.83255 20.2382H9.83977C9.97585 20.2382 10.0979 20.1544 10.1468 20.0274C10.1958 19.9004 10.1616 19.7564 10.0607 19.665Z" fill="white"/>
<path d="M10.0511 19.6554C9.9764 19.5882 9.87508 19.5587 9.77584 19.5756C9.67672 19.5924 9.59072 19.6536 9.54236 19.7418L9.54008 19.7459C9.47069 19.8724 9.49179 20.0293 9.59213 20.1331L9.5933 20.1343C9.65779 20.2009 9.74371 20.2345 9.82987 20.2345C9.90914 20.2345 9.98864 20.206 10.0516 20.1485L10.0551 20.1454C10.085 20.1182 10.1096 20.0855 10.1277 20.0493C10.194 19.9169 10.1612 19.7544 10.0511 19.6554Z" fill="white"/>
<path d="M10.065 19.6756L10.0636 19.6742C10.0627 19.6733 10.0618 19.6724 10.061 19.6716L9.98798 19.5986C9.98456 19.5952 9.98102 19.5918 9.97745 19.5886L6.44519 16.3573L6.79038 15.6983C6.84342 15.597 6.84012 15.4756 6.78175 15.3773C6.72335 15.2791 6.61819 15.2182 6.50394 15.2165L5.66234 15.2035L6.51994 13.4837C6.58002 13.3632 6.56062 13.2183 6.47116 13.1178C6.3817 13.0173 6.23996 12.9814 6.11346 13.0272L2.00595 14.5133C1.2358 14.7918 0.674227 15.4669 0.540431 16.2749L0.115852 18.8388C0.0580221 19.1881 0.156192 19.5432 0.385154 19.8132C0.614154 20.0832 0.948548 20.2381 1.30252 20.2381H9.83297C9.96627 20.2381 10.0864 20.1576 10.1372 20.0345C10.188 19.9113 10.1595 19.7695 10.065 19.6756ZM1.30256 19.5798C1.14226 19.5798 0.990865 19.5097 0.88722 19.3875C0.783575 19.2652 0.739167 19.1044 0.765325 18.9463L1.1899 16.3824C1.28484 15.8089 1.68334 15.3299 2.22989 15.1322L5.56375 13.9261L4.83999 15.3775C4.7895 15.4788 4.79452 15.5988 4.85333 15.6954C4.91208 15.7921 5.01637 15.8518 5.12948 15.8535L5.95932 15.8663L5.74458 16.2763C5.67527 16.4086 5.70379 16.571 5.81397 16.6718L8.99294 19.5798H1.30256Z" fill="white"/>
</g>
<defs>
<clipPath id="clip0_0_1594">
<rect width="19.4667" height="19.4667" fill="white" transform="translate(0.0996094 0.811035)"/>
</clipPath>
</defs>
</svg>
