<svg width="20" height="18" viewBox="0 0 20 18" fill="none" xmlns="http://www.w3.org/2000/svg">
<path d="M19.4524 11.8158C19.4139 11.4022 19.2 11.0238 18.8656 10.7775C18.2649 10.335 17.4317 10.4159 16.9274 10.9658L15.4371 12.591V12.3028C15.4371 10.5989 14.2241 9.12141 12.553 8.78953L11.7594 8.63189C11.4952 8.57942 11.2662 8.43175 11.1098 8.22382C12.0932 7.83365 12.8732 7.0381 13.2427 6.04454C13.3055 6.1256 13.3736 6.2035 13.4473 6.27723C13.9145 6.74439 14.5393 7.00091 15.1925 7.00091C15.2781 7.00091 15.3643 6.9965 15.4506 6.98757C15.5613 6.97612 15.6615 6.9167 15.7246 6.82503C15.7878 6.73332 15.8076 6.61854 15.7788 6.51098L15.7085 6.24886L15.9707 6.31909C16.0781 6.34791 16.193 6.32817 16.2847 6.26498C16.3764 6.20183 16.4358 6.10168 16.4473 5.99093C16.5242 5.24618 16.2653 4.51602 15.7369 3.98761C15.1348 3.38551 14.269 3.14153 13.4523 3.32244C13.243 1.45592 11.6554 6.10352e-05 9.73393 6.10352e-05C7.81244 6.10352e-05 6.22484 1.45592 6.01557 3.32244C5.19888 3.14153 4.33307 3.38547 3.73098 3.98761C3.20256 4.51606 2.94364 5.24625 3.02063 5.99093C3.03211 6.10168 3.0915 6.20183 3.18321 6.26498C3.27488 6.32813 3.38966 6.34787 3.49722 6.31909L3.75938 6.24886L3.68911 6.51098C3.66029 6.61854 3.68007 6.73332 3.74322 6.82503C3.80637 6.91674 3.90652 6.97616 4.01727 6.98757C4.10362 6.9965 4.1897 7.00091 4.2754 7.00091C4.92856 7.00088 5.55347 6.74435 6.02059 6.27723C6.09431 6.2035 6.16233 6.1256 6.22518 6.04454C6.5947 7.0381 7.37466 7.83365 8.35807 8.22382C8.20173 8.43175 7.97269 8.57942 7.70852 8.63189L6.91495 8.78953C5.25067 9.12004 4.04126 10.5868 4.0313 12.2817C3.53448 12.5208 3.07622 12.8446 2.67483 13.2459L0.120631 15.8001C-0.0278405 15.9486 -0.0278405 16.1893 0.120631 16.3378C0.194886 16.4121 0.292181 16.4492 0.389476 16.4492C0.486771 16.4492 0.584067 16.4121 0.658321 16.3378L3.21249 13.7836C4.00404 12.992 5.05653 12.5561 6.17602 12.5561C6.92933 12.5561 7.63746 12.8494 8.1701 13.3821C8.24142 13.4534 8.33811 13.4935 8.43894 13.4935H10.9323C11.3013 13.4935 11.6016 13.7937 11.6016 14.1627C11.6016 14.5317 11.3013 14.832 10.9323 14.832H8.04197C7.83202 14.832 7.66176 15.0022 7.66176 15.2122C7.66176 15.4221 7.83202 15.5924 8.04197 15.5924H11.0095C12.7296 15.5924 14.383 14.8653 15.5457 13.5975L17.4878 11.4798C17.7289 11.2169 18.1274 11.1782 18.4146 11.3898C18.5769 11.5093 18.6765 11.6856 18.6951 11.8862C18.7138 12.0869 18.6484 12.2785 18.511 12.426L16.0481 15.0675C15.1668 16.0127 14.038 16.6771 12.7839 16.9889C12.5801 17.0396 12.456 17.2458 12.5066 17.4496C12.5496 17.6226 12.7048 17.7382 12.8753 17.7382C12.9057 17.7382 12.9365 17.7345 12.9673 17.7269C14.3647 17.3795 15.6224 16.6392 16.6043 15.586L19.0672 12.9445C19.3505 12.6407 19.4908 12.2293 19.4524 11.8158ZM13.5427 4.083C14.1297 3.92518 14.7641 4.09008 15.1992 4.5253C15.4549 4.78099 15.6194 5.10504 15.6771 5.45316L15.2692 5.34389C15.1379 5.30864 14.998 5.34628 14.902 5.44229C14.8059 5.53833 14.7684 5.67832 14.8036 5.80957L14.9128 6.21742C14.5647 6.15974 14.2406 5.99522 13.985 5.73957C13.5498 5.30431 13.3848 4.66997 13.5427 4.083ZM12.704 3.48847C11.7868 3.40308 10.9184 3.00587 10.2537 2.36416C10.5433 1.95768 10.7679 1.49953 10.9114 1.00335C11.8976 1.42896 12.6094 2.37199 12.704 3.48847ZM9.73393 0.760478C9.88552 0.760478 10.0344 0.772036 10.18 0.793974C9.73675 2.32241 8.36697 3.416 6.76295 3.50037C6.88651 1.96905 8.17135 0.760478 9.73393 0.760478ZM5.4829 5.73953C5.22721 5.99522 4.9032 6.15974 4.55504 6.21738L4.66431 5.80953C4.69948 5.67832 4.66195 5.53833 4.56591 5.44225C4.49367 5.37001 4.39657 5.33089 4.29703 5.33089C4.26426 5.33089 4.23122 5.33511 4.19867 5.34385L3.79082 5.45312C3.84846 5.105 4.01298 4.78095 4.26867 4.52526C4.70389 4.09 5.33842 3.92514 5.9252 4.08297C6.0831 4.66997 5.91812 5.30431 5.4829 5.73953ZM6.7523 4.74388V4.26254C7.91471 4.21444 8.97804 3.72508 9.76127 2.94493C10.5653 3.70538 11.6132 4.16905 12.7156 4.25273V4.74388C12.7156 6.38794 11.378 7.72551 9.73393 7.72551C8.08987 7.72551 6.7523 6.38794 6.7523 4.74388ZM9.73393 8.48589C9.94259 8.48589 10.1472 8.46844 10.3467 8.43544C10.4613 8.65265 10.6175 8.84257 10.8045 8.99602C10.5436 9.3111 10.1561 9.49797 9.73397 9.49797C9.31183 9.49797 8.92432 9.3111 8.66349 8.99602C8.85052 8.84257 9.00663 8.65265 9.1213 8.43544C9.32068 8.46848 9.52531 8.48589 9.73393 8.48589ZM10.9323 12.733H8.59152C7.93015 12.1274 7.0786 11.7957 6.17609 11.7957C5.7073 11.7957 5.24854 11.8607 4.80982 11.9859C4.94646 10.7811 5.85159 9.77602 7.06312 9.53542L7.85669 9.37779C7.89715 9.36976 7.93711 9.3603 7.97657 9.34969C8.37632 9.91707 9.02374 10.2584 9.73397 10.2584C10.4442 10.2584 11.0917 9.91707 11.4914 9.34969C11.5309 9.3603 11.5708 9.36976 11.6113 9.37779L12.4049 9.53542C13.7212 9.79681 14.6766 10.9607 14.6766 12.3028V13.3934C13.9944 14.0251 13.1604 14.4682 12.2634 14.6834C12.3268 14.5219 12.362 14.3464 12.362 14.1627C12.362 13.3744 11.7207 12.733 10.9323 12.733Z" fill="white"/>
</svg>
