<svg width="20" height="20" viewBox="0 0 20 20" fill="none" xmlns="http://www.w3.org/2000/svg">
<path d="M19.4097 0H3.32853H0.789399C0.555799 0 0.366211 0.189588 0.366211 0.423188V2.96232V19.0435C0.366211 19.2771 0.555799 19.4667 0.789399 19.4667H3.32853C3.56213 19.4667 3.75172 19.2771 3.75172 19.0435V18.6203H16.0242C16.1363 18.6203 16.2442 18.5759 16.3234 18.4963L18.8625 15.9572C18.9421 15.878 18.9865 15.7701 18.9865 15.658V3.38551H19.4097C19.6433 3.38551 19.8329 3.19592 19.8329 2.96232V0.423188C19.8329 0.189588 19.6433 0 19.4097 0ZM2.90534 18.6203H1.21259V3.38551H2.90534V18.6203ZM2.90534 2.53913H1.21259V0.846377H2.90534V2.53913ZM18.1401 15.4828L15.849 17.7739H15.601V15.2348H18.1401V15.4828ZM18.1401 14.3884H15.1778C14.9442 14.3884 14.7546 14.578 14.7546 14.8116V17.7739H3.75172V10.1565H5.86766C6.10126 10.1565 6.29085 9.96693 6.29085 9.73333C6.29085 9.49973 6.10126 9.31015 5.86766 9.31015H3.75172V3.38551H9.67636V5.50145C9.67636 5.73505 9.86594 5.92464 10.0995 5.92464C10.3331 5.92464 10.5227 5.73505 10.5227 5.50145V3.38551H18.1401V14.3884ZM18.9865 2.53913H3.75172V0.846377H18.9865V2.53913Z" fill="white"/>
</svg>
